<?xml version="1.0" encoding="UTF-8" standalone="no"?>
<svg
   xmlns:dc="http://purl.org/dc/elements/1.1/"
   xmlns:cc="http://creativecommons.org/ns#"
   xmlns:rdf="http://www.w3.org/1999/02/22-rdf-syntax-ns#"
   xmlns:svg="http://www.w3.org/2000/svg"
   xmlns="http://www.w3.org/2000/svg"
   xmlns:sodipodi="http://sodipodi.sourceforge.net/DTD/sodipodi-0.dtd"
   xmlns:inkscape="http://www.inkscape.org/namespaces/inkscape"
   version="1.1"
   id="Layer_1"
   x="0px"
   y="0px"
   viewBox="0 0 1110.0002 175.99434"
   enable-background="new 0 0 1200 1200"
   xml:space="preserve"
   sodipodi:docname="logo.svg"
   width="1110.0002"
   height="175.99434"
   inkscape:version="1.0.1 (c497b03c, 2020-09-10)"><metadata
   id="metadata1044"><rdf:RDF><cc:Work
       rdf:about=""><dc:format>image/svg+xml</dc:format><dc:type
         rdf:resource="http://purl.org/dc/dcmitype/StillImage" /><dc:title></dc:title></cc:Work></rdf:RDF></metadata><defs
   id="defs1042" /><sodipodi:namedview
   pagecolor="#ffffff"
   bordercolor="#666666"
   borderopacity="1"
   objecttolerance="10"
   gridtolerance="10"
   guidetolerance="10"
   inkscape:pageopacity="0"
   inkscape:pageshadow="2"
   inkscape:window-width="1393"
   inkscape:window-height="855"
   id="namedview1040"
   showgrid="false"
   lock-margins="true"
   fit-margin-top="5"
   fit-margin-left="5"
   fit-margin-right="5"
   fit-margin-bottom="5"
   inkscape:zoom="0.5575"
   inkscape:cx="555.00046"
   inkscape:cy="87.997073"
   inkscape:window-x="47"
   inkscape:window-y="23"
   inkscape:window-maximized="1"
   inkscape:current-layer="Layer_1"
   inkscape:document-rotation="0" />
<g
   id="g1037"
   transform="translate(-44.999542,-512.00293)">
	<g
   id="g899">
		<path
   d="m 240.524,517.599 c -3.582,4.757 -4.153,11.501 -4.407,17.238 -0.334,7.532 0.251,15.088 0.889,22.589 0.543,6.377 1.234,12.748 1.259,19.154 0.035,8.856 0.369,17.709 0.256,26.566 -0.117,9.15 -0.336,18.791 -3.311,27.539 -0.583,1.715 2.128,2.451 2.708,0.746 2.581,-7.589 3.064,-15.886 3.315,-23.837 0.283,-8.939 0.003,-17.882 -0.12,-26.821 -0.09,-6.58 -0.398,-13.056 -0.974,-19.614 -0.656,-7.457 -1.327,-14.935 -1.303,-22.427 0.021,-6.394 0.078,-14.358 4.112,-19.715 1.088,-1.444 -1.349,-2.845 -2.424,-1.418 z"
   id="path897" />
	</g>
	<g
   id="g903">
		<path
   d="m 243.144,522.765 c 7.891,-3.272 17.251,-1.697 25.389,-0.308 8.563,1.462 17.073,3.619 25.748,4.329 11.677,0.956 23.698,0.06 35.395,-0.258 12.606,-0.342 25.203,-0.628 37.814,-0.605 50.732,0.095 101.359,2.001 152.049,3.785 51.373,1.808 102.785,1.928 154.183,1.956 51.223,0.028 102.456,-0.038 153.664,1.37 25.522,0.702 51.043,1.133 76.576,1.157 19.285,0.018 38.672,4.747 57.944,2.577 3.94,-0.444 7.811,-1.224 11.528,-2.625 1.675,-0.631 0.949,-3.347 -0.746,-2.708 -8.742,3.296 -18.376,3.271 -27.584,2.808 -9.859,-0.496 -19.651,-1.798 -29.493,-2.498 -11.305,-0.804 -22.718,-0.37 -34.046,-0.469 -12.747,-0.111 -25.492,-0.312 -38.236,-0.619 -51.2,-1.232 -102.37,-1.769 -153.585,-1.795 -51.412,-0.026 -102.834,0.021 -154.229,-1.454 -50.725,-1.456 -101.372,-3.87 -152.13,-4.224 -25.271,-0.176 -50.489,0.786 -75.751,0.974 -9.956,0.074 -19.189,-0.787 -28.955,-2.664 -8.578,-1.649 -17.384,-3.608 -26.17,-3.361 -3.455,0.097 -6.902,0.593 -10.109,1.923 -1.648,0.684 -0.926,3.401 0.744,2.709 z"
   id="path901" />
	</g>
	<g
   id="g907">
		<path
   d="m 235.856,631.236 c 6.15,3.92 13.845,4.317 20.933,4.013 8.854,-0.38 17.606,-2.016 26.347,-3.363 9.696,-1.494 19.135,-1.486 28.936,-1.486 13.006,0 26.013,-0.012 39.019,-0.013 51.45,-0.004 102.947,-0.679 154.376,1.118 25.715,0.899 51.28,2.052 77.024,1.471 25.363,-0.571 50.703,-1.891 76.067,-2.389 25.772,-0.506 51.567,-0.269 77.344,-0.486 25.827,-0.218 51.654,-0.503 77.482,-0.651 12.72,-0.073 25.446,-0.238 38.163,0.135 12.827,0.377 25.639,1.133 38.465,1.547 20.477,0.662 41.299,-1.65 61.687,0.58 4.324,0.473 8.62,1.266 12.713,2.767 1.699,0.623 2.432,-2.089 0.746,-2.708 -8.02,-2.942 -16.886,-3.392 -25.346,-3.58 -9.795,-0.218 -19.585,0.254 -29.378,0.396 -24.875,0.36 -49.696,-2.072 -74.569,-2.036 -51.201,0.075 -102.398,0.975 -153.6,1.03 -50.959,0.055 -101.95,4.629 -152.9,2.154 -51.442,-2.499 -102.909,-2.167 -154.395,-2.149 -25.542,0.009 -51.086,-0.107 -76.628,-10e-4 -16.88,0.07 -33.436,6.52 -50.399,4.659 -3.772,-0.414 -7.448,-1.38 -10.67,-3.434 -1.528,-0.973 -2.938,1.456 -1.417,2.426 z"
   id="path905" />
	</g>
	<g
   id="g911">
		<path
   d="m 979.64,529.367 c -1.817,-0.29 -3.574,-0.129 -5.389,0.106 -0.577,0.075 -1.233,0.38 -1.354,1.031 -2.732,14.718 -3.276,29.705 -3.903,44.627 -0.288,6.862 -0.621,13.708 -1.305,20.544 -0.676,6.763 -1.541,13.505 -2.356,20.252 -0.815,6.747 -1.635,13.511 -1.952,20.304 -0.084,1.806 2.724,1.802 2.808,0 0.589,-12.628 2.666,-25.16 4.014,-37.718 1.506,-14.029 1.609,-28.131 2.509,-42.202 0.537,-8.397 1.356,-16.781 2.893,-25.059 -0.451,0.344 -0.903,0.687 -1.354,1.031 1.518,-0.197 3.116,-0.45 4.642,-0.207 1.768,0.28 2.529,-2.425 0.747,-2.709 z"
   id="path909" />
	</g>
	<g
   id="g915">
		<path
   d="m 890.486,632.801 c 0.612,-1.234 1.362,-2.027 1.246,-3.499 -0.139,-1.779 -2.799,-1.832 -2.808,0 -0.051,9.899 0.821,19.759 1.445,29.63 0.305,4.834 0.541,9.673 0.567,14.517 0.008,1.557 -0.613,4.556 1.512,5.062 0.688,0.164 1.369,-0.15 1.713,-0.766 0.153,-0.273 0.178,-0.548 0.221,-0.853 0.027,-0.186 0.153,-0.484 0.021,-0.362 1.332,-1.227 -0.658,-3.209 -1.986,-1.986 -0.337,0.31 -0.565,0.699 -0.686,1.142 -0.052,0.19 -0.075,0.398 -0.094,0.593 -0.027,0.287 -0.198,0.605 0.048,0.141 0.28,-0.215 0.559,-0.43 0.839,-0.645 -0.026,0.009 -0.052,0.019 -0.078,0.028 0.361,0.047 0.721,0.094 1.082,0.142 0.031,0.133 -0.041,0.06 -0.214,-0.219 0.137,0.331 0.274,0.662 0.411,0.993 0.219,-15.839 -2.076,-31.581 -1.995,-47.417 -0.936,0 -1.872,0 -2.808,0 0.067,0.854 -0.495,1.339 -0.863,2.082 -0.798,1.613 1.623,3.038 2.427,1.417 z"
   id="path913" />
	</g>
	<g
   id="g919">
		<path
   d="m 895.154,676.749 c 8.807,-6.675 19.083,-10.923 28.871,-15.9 4.748,-2.414 9.322,-5.069 13.736,-8.049 4.493,-3.034 8.884,-6.221 13.489,-9.085 4.978,-3.096 10.226,-5.851 15.977,-7.166 1.761,-0.402 1.016,-3.11 -0.746,-2.708 -10.396,2.376 -19.221,9.037 -27.844,14.969 -4.406,3.031 -8.887,5.875 -13.621,8.37 -5.002,2.635 -10.138,5.005 -15.193,7.536 -5.593,2.801 -11.091,5.823 -16.086,9.609 -1.422,1.078 -0.024,3.517 1.417,2.424 z"
   id="path917" />
	</g>
	<g
   id="g923">
		<path
   d="m 235.352,631.766 c 3.297,5.458 8.62,9.349 14.084,12.442 6.095,3.451 12.625,6.068 19.107,8.686 3.046,1.23 6.099,2.447 9.096,3.793 3.576,1.605 7.033,3.469 10.529,5.239 4.13,2.092 8.283,4.142 12.513,6.027 3.671,1.635 7.454,3.008 11.073,4.757 3.802,1.838 7.503,3.876 11.289,5.745 2.933,1.448 6.077,3.104 9.347,3.608 1.768,0.272 2.53,-2.433 0.746,-2.708 -2.797,-0.431 -5.452,-1.754 -7.972,-2.979 -3.257,-1.583 -6.443,-3.305 -9.674,-4.94 -3.345,-1.692 -6.772,-3.086 -10.225,-4.535 -4.171,-1.751 -8.26,-3.694 -12.311,-5.707 -6.648,-3.304 -13.167,-6.729 -20.044,-9.54 -6.346,-2.594 -12.763,-5.047 -18.878,-8.164 -6.172,-3.146 -12.588,-7.066 -16.258,-13.141 -0.93,-1.545 -3.359,-0.135 -2.422,1.417 z"
   id="path921" />
	</g>
	<g
   id="g927">
		<path
   d="m 334.791,680.668 c 2.711,-3.455 4.519,-7.357 5.522,-11.629 0.995,-4.239 1.312,-8.604 1.799,-12.921 0.723,-6.406 2.047,-12.749 3.293,-19.07 0.369,-1.873 0.744,-3.746 1.126,-5.617 0.36,-1.764 -2.346,-2.518 -2.708,-0.746 -0.913,4.471 -1.794,8.949 -2.626,13.436 -0.54,2.912 -1.077,5.828 -1.489,8.761 -0.57,4.06 -0.815,8.163 -1.475,12.211 -0.8,4.907 -2.323,9.632 -5.427,13.589 -1.103,1.406 0.87,3.407 1.985,1.986 z"
   id="path925" />
	</g>
	<g
   id="g931">
		<path
   d="m 74.163,549.709 c 22.138,0 44.279,0.008 66.411,0.562 10.768,0.269 21.525,0.659 32.27,1.427 10.418,0.745 20.819,1.707 31.23,2.541 11.153,0.893 22.331,1.666 33.525,1.677 1.807,0.002 1.81,-2.806 0,-2.808 -20.335,-0.021 -40.597,-2.385 -60.851,-3.929 -21.63,-1.649 -43.336,-1.997 -65.021,-2.174 -12.521,-0.102 -25.043,-0.103 -37.564,-0.103 -1.806,0 -1.809,2.807 0,2.807 z"
   id="path929" />
	</g>
	<g
   id="g935">
		<path
   d="m 74.205,549.298 c 12.982,15.918 28.767,29.421 40.961,46.001 3.188,4.334 6.09,8.88 8.471,13.71 0.799,1.621 3.222,0.2 2.425,-1.417 -4.401,-8.928 -10.555,-16.88 -17.057,-24.366 -6.834,-7.869 -14.179,-15.27 -21.295,-22.88 -3.961,-4.236 -7.853,-8.538 -11.519,-13.033 -1.143,-1.401 -3.119,0.596 -1.986,1.985 z"
   id="path933" />
	</g>
	<g
   id="g939">
		<path
   d="m 123.856,607.308 c -7.582,8.7 -18.296,13.795 -27.946,19.778 -5.04,3.125 -9.719,6.593 -14.09,10.603 -5.134,4.711 -10.026,9.689 -15.434,14.094 -2.883,2.349 -5.831,4.489 -8.999,6.436 -1.218,0.749 -2.348,1.625 -3.518,2.443 -0.506,0.354 -1.136,0.64 -1.614,1.024 -0.042,0.034 -0.286,0.087 -0.303,0.123 0.353,-0.003 0.638,0.2 0.854,0.609 -0.014,-0.109 -0.012,-0.219 0.004,-0.329 0.061,-1.807 -2.747,-1.805 -2.808,0 -0.085,2.495 2.051,2.922 3.911,1.891 1.036,-0.574 1.974,-1.328 2.936,-2.015 1.38,-0.985 2.843,-1.815 4.262,-2.74 6.178,-4.026 11.652,-9.124 16.984,-14.183 4.966,-4.71 9.87,-9.388 15.583,-13.195 5.218,-3.478 10.722,-6.496 16.055,-9.788 5.833,-3.601 11.576,-7.567 16.108,-12.768 1.183,-1.354 -0.795,-3.348 -1.985,-1.983 z"
   id="path937" />
	</g>
	<g
   id="g943">
		<path
   d="m 53.102,664.478 c 16.073,5.146 33.154,6.266 49.926,6.569 17.108,0.308 34.248,-0.408 51.338,0.67 9.383,0.592 18.695,1.589 28.106,1.781 9.806,0.201 19.616,-0.043 29.413,-0.472 9.608,-0.421 19.083,-0.475 28.681,0.261 9.415,0.722 18.798,1.837 28.225,2.412 9.568,0.583 19.161,0.007 28.723,0.628 4.593,0.298 9.055,1.063 13.533,2.105 4.388,1.022 8.773,2.118 13.265,2.576 2.125,0.217 4.255,0.258 6.384,0.071 1.786,-0.157 1.803,-2.966 0,-2.808 -8.922,0.784 -17.396,-2.689 -26.092,-4.001 -9.456,-1.427 -19.025,-0.871 -28.548,-1.069 -18.86,-0.392 -37.533,-3.97 -56.436,-3.336 -9.797,0.329 -19.571,0.879 -29.378,0.895 -9.77,0.016 -19.521,-0.388 -29.247,-1.326 -16.883,-1.629 -33.893,-1.024 -50.827,-1.115 -16.927,-0.092 -34.138,-0.615 -50.607,-4.891 -1.919,-0.498 -3.823,-1.053 -5.711,-1.658 -1.727,-0.552 -2.465,2.158 -0.748,2.708 z"
   id="path941" />
	</g>
	<g
   id="g947">
		<path
   d="m 970.991,561.088 c 11.336,-0.078 22.592,-1.441 33.85,-2.625 11.294,-1.188 22.548,-1.984 33.906,-1.447 23.067,1.092 46.315,0.122 69.299,2.673 12.107,1.344 24.169,4.723 36.436,3.418 -0.236,-0.872 -0.472,-1.744 -0.709,-2.616 -1.257,0.757 -2.527,1.481 -3.849,2.119 -1.627,0.785 -0.205,3.207 1.417,2.425 1.322,-0.638 2.592,-1.362 3.849,-2.119 1.107,-0.667 0.745,-2.771 -0.709,-2.616 -10.965,1.167 -21.814,-1.436 -32.613,-2.934 -11.182,-1.551 -22.553,-1.891 -33.827,-2.177 -11.655,-0.295 -23.315,-0.352 -34.966,-0.796 -5.678,-0.216 -11.33,-0.514 -17.015,-0.347 -5.68,0.166 -11.347,0.622 -17,1.179 -12.672,1.248 -25.316,2.968 -38.07,3.056 -1.805,0.011 -1.809,2.819 10e-4,2.807 z"
   id="path945" />
	</g>
	<g
   id="g951">
		<path
   d="m 1074.106,604.341 c 18.14,-12.037 36.858,-23.197 55.956,-33.643 5.452,-2.982 10.938,-5.903 16.453,-8.768 1.604,-0.833 0.186,-3.257 -1.417,-2.425 -19.345,10.049 -38.333,20.798 -56.814,32.362 -5.242,3.28 -10.441,6.629 -15.594,10.049 -1.5,0.995 -0.096,3.428 1.416,2.425 z"
   id="path949" />
	</g>
	<g
   id="g955">
		<path
   d="m 1072.405,604.122 c 8.719,9.774 16.115,20.648 24.971,30.306 4.657,5.079 9.862,9.515 15.089,13.988 5.573,4.769 11.175,9.505 16.715,14.311 6.262,5.432 12.439,10.961 18.423,16.699 0.206,-0.782 0.413,-1.564 0.62,-2.347 -1.275,0.421 -2.521,0.915 -3.825,1.242 -1.751,0.44 -1.009,3.149 0.746,2.708 1.304,-0.328 2.55,-0.821 3.825,-1.242 0.972,-0.321 1.416,-1.583 0.62,-2.347 -10.634,-10.195 -21.89,-19.698 -33.089,-29.258 -5.295,-4.521 -10.7,-8.945 -15.508,-13.994 -4.549,-4.777 -8.697,-9.916 -12.782,-15.09 -4.519,-5.724 -8.963,-11.516 -13.82,-16.961 -1.205,-1.352 -3.185,0.639 -1.985,1.985 z"
   id="path953" />
	</g>
	<g
   id="g959">
		<path
   d="m 893.411,677.976 c 14.808,-1.678 29.773,1.489 44.552,2.21 17.114,0.836 34.225,1.996 51.349,2.608 34.01,1.216 67.865,-3.406 101.845,-3.763 9.309,-0.098 18.622,-0.317 27.931,-0.351 9.186,-0.033 18.375,0.419 27.379,2.349 1.762,0.378 2.515,-2.329 0.746,-2.708 -16.114,-3.453 -32.547,-2.204 -48.887,-2.122 -17.148,0.086 -34.221,0.977 -51.331,2.064 -17.007,1.081 -34.039,2.14 -51.089,1.889 -17.122,-0.252 -34.253,-1.58 -51.353,-2.445 -8.665,-0.439 -17.264,-1.124 -25.9,-1.945 -8.363,-0.795 -16.86,-1.543 -25.242,-0.593 -1.775,0.2 -1.795,3.01 0,2.807 z"
   id="path957" />
	</g>
	<g
   id="g963">
		<path
   d="m 247.113,633.682 c -0.442,2.667 -0.884,5.333 -1.326,8 -0.293,1.768 2.412,2.528 2.708,0.746 0.442,-2.667 0.884,-5.333 1.326,-8 0.292,-1.767 -2.413,-2.527 -2.708,-0.746 z"
   id="path961" />
	</g>
	<g
   id="g967">
		<path
   d="m 335.554,630.188 c -3.637,15.945 -7.274,31.89 -10.911,47.835 -0.401,1.759 2.305,2.51 2.708,0.746 3.637,-15.945 7.274,-31.89 10.911,-47.835 0.401,-1.759 -2.305,-2.51 -2.708,-0.746 z"
   id="path965" />
	</g>
	<g
   id="g971">
		<path
   d="m 324.344,629.768 c -3.758,14.251 -7.515,28.502 -11.273,42.753 -0.474,1.8 2.035,2.367 2.708,0.746 0.141,-0.339 0.281,-0.678 0.422,-1.016 0.692,-1.667 -2.024,-2.394 -2.708,-0.746 -0.141,0.339 -0.281,0.678 -0.422,1.016 0.903,0.249 1.805,0.498 2.708,0.746 3.758,-14.251 7.515,-28.502 11.273,-42.753 0.46,-1.748 -2.247,-2.495 -2.708,-0.746 z"
   id="path969" />
	</g>
	<g
   id="g975">
		<path
   d="m 314.463,629.784 c -3.33,12.647 -6.659,25.294 -9.989,37.941 -0.46,1.749 2.247,2.495 2.708,0.746 3.33,-12.647 6.659,-25.294 9.989,-37.941 0.46,-1.748 -2.247,-2.495 -2.708,-0.746 z"
   id="path973" />
	</g>
	<g
   id="g979">
		<path
   d="m 304.764,629.552 c -2.792,11.948 -5.978,23.799 -9.554,35.536 -0.4,1.313 1.404,2.413 2.347,1.366 0.128,-0.142 0.256,-0.285 0.384,-0.427 1.206,-1.34 -0.773,-3.332 -1.986,-1.985 -0.128,0.142 -0.256,0.285 -0.384,0.427 0.782,0.455 1.564,0.911 2.347,1.366 3.576,-11.737 6.763,-23.589 9.554,-35.536 0.411,-1.758 -2.296,-2.509 -2.708,-0.747 z"
   id="path977" />
	</g>
	<g
   id="g983">
		<path
   d="m 294.666,630.191 c -2.441,9.841 -4.882,19.681 -7.323,29.522 -0.435,1.754 2.272,2.502 2.708,0.746 2.441,-9.841 4.882,-19.681 7.323,-29.522 0.435,-1.754 -2.272,-2.502 -2.708,-0.746 z"
   id="path981" />
	</g>
	<g
   id="g987">
		<path
   d="m 285.632,632.006 c -2.778,7.93 -5.071,16.016 -6.871,24.223 -0.386,1.761 2.32,2.514 2.708,0.746 1.8,-8.207 4.093,-16.293 6.871,-24.223 0.599,-1.709 -2.113,-2.443 -2.708,-0.746 z"
   id="path985" />
	</g>
	<g
   id="g991">
		<path
   d="m 275.935,631.337 c -1.871,7.021 -3.742,14.041 -5.613,21.062 -0.466,1.748 2.242,2.494 2.708,0.746 1.871,-7.021 3.742,-14.041 5.613,-21.062 0.466,-1.748 -2.242,-2.493 -2.708,-0.746 z"
   id="path989" />
	</g>
	<g
   id="g995">
		<path
   d="m 266.442,634.032 c -1.364,5.705 -2.729,11.41 -4.093,17.115 0.903,0 1.805,0 2.708,0 -0.022,-0.026 -0.044,-0.052 -0.066,-0.078 1.117,-1.398 -0.857,-3.397 -1.986,-1.986 -0.698,0.874 -0.963,1.705 -0.656,2.81 0.363,1.303 2.38,1.371 2.708,0 1.364,-5.705 2.729,-11.41 4.093,-17.115 0.42,-1.756 -2.287,-2.505 -2.708,-0.746 z"
   id="path993" />
	</g>
	<g
   id="g999">
		<path
   d="m 257.565,634.396 c -0.96,4.093 -1.919,8.185 -2.879,12.278 -0.412,1.758 2.295,2.508 2.708,0.746 0.96,-4.093 1.919,-8.185 2.879,-12.278 0.412,-1.758 -2.295,-2.508 -2.708,-0.746 z"
   id="path997" />
	</g>
	<g
   id="g1003">
		<path
   d="m 893.884,630.977 c 0.816,13.889 1.633,27.779 2.449,41.668 0.106,1.796 2.914,1.808 2.808,0 -0.816,-13.889 -1.633,-27.779 -2.449,-41.668 -0.106,-1.796 -2.914,-1.808 -2.808,0 z"
   id="path1001" />
	</g>
	<g
   id="g1007">
		<path
   d="m 899.202,630.981 c 1.127,12.492 2.254,24.984 3.381,37.476 0.161,1.785 2.971,1.802 2.808,0 -1.127,-12.492 -2.254,-24.984 -3.381,-37.476 -0.161,-1.786 -2.971,-1.802 -2.808,0 z"
   id="path1005" />
	</g>
	<g
   id="g1011">
		<path
   d="m 906.56,630.539 c 1.477,11.605 2.954,23.21 4.432,34.814 0.225,1.768 3.036,1.791 2.808,0 -1.477,-11.605 -2.954,-23.21 -4.432,-34.814 -0.225,-1.768 -3.036,-1.79 -2.808,0 z"
   id="path1009" />
	</g>
	<g
   id="g1015">
		<path
   d="m 913.743,629.451 c 1.296,10.321 2.593,20.642 3.889,30.963 0.222,1.769 3.033,1.791 2.808,0 -1.296,-10.321 -2.593,-20.642 -3.889,-30.963 -0.222,-1.769 -3.033,-1.791 -2.808,0 z"
   id="path1013" />
	</g>
	<g
   id="g1019">
		<path
   d="m 922.446,630.985 c 0.562,8.408 1.124,16.817 1.686,25.225 0.12,1.794 2.929,1.807 2.808,0 -0.562,-8.408 -1.124,-16.817 -1.686,-25.225 -0.12,-1.794 -2.929,-1.807 -2.808,0 z"
   id="path1017" />
	</g>
	<g
   id="g1023">
		<path
   d="m 929.493,630.264 c 1.253,8.209 1.307,16.608 0.15,24.831 -0.249,1.767 2.457,2.531 2.708,0.746 1.233,-8.765 1.186,-17.574 -0.15,-26.324 -0.272,-1.78 -2.978,-1.024 -2.708,0.747 z"
   id="path1021" />
	</g>
	<g
   id="g1027">
		<path
   d="m 936.372,630.666 c 1.263,6.12 2.525,12.24 3.788,18.36 0.365,1.769 3.072,1.02 2.708,-0.746 -1.263,-6.12 -2.525,-12.24 -3.788,-18.36 -0.365,-1.769 -3.073,-1.02 -2.708,0.746 z"
   id="path1025" />
	</g>
	<g
   id="g1031">
		<path
   d="m 943.711,630.69 c 1.55,4.709 3.101,9.418 4.651,14.126 0.563,1.708 3.275,0.977 2.708,-0.746 -1.55,-4.709 -3.101,-9.418 -4.651,-14.126 -0.563,-1.709 -3.275,-0.977 -2.708,0.746 z"
   id="path1029" />
	</g>
	<g
   id="g1035">
		<path
   d="m 951.746,631.044 c 0.801,3.305 1.602,6.61 2.404,9.915 0.425,1.755 3.134,1.012 2.708,-0.746 -0.801,-3.305 -1.602,-6.61 -2.404,-9.915 -0.426,-1.756 -3.135,-1.013 -2.708,0.746 z"
   id="path1033" />
	</g>
</g>
<text
   xml:space="preserve"
   style="font-size:96px;line-height:1.25;font-family:Roboto;-inkscape-font-specification:Roboto"
   x="390.8251"
   y="104.03587"
   id="text910"><tspan
     sodipodi:role="line"
     id="tspan908"
     x="390.8251"
     y="104.03587"
     style="font-size:96px">PREMIO</tspan></text></svg>
