<?xml version="1.0" encoding="UTF-8" standalone="no"?>
<svg
   xmlns:dc="http://purl.org/dc/elements/1.1/"
   xmlns:cc="http://creativecommons.org/ns#"
   xmlns:rdf="http://www.w3.org/1999/02/22-rdf-syntax-ns#"
   xmlns:svg="http://www.w3.org/2000/svg"
   xmlns="http://www.w3.org/2000/svg"
   xmlns:sodipodi="http://sodipodi.sourceforge.net/DTD/sodipodi-0.dtd"
   xmlns:inkscape="http://www.inkscape.org/namespaces/inkscape"
   version="1.1"
   id="Capa_1"
   x="0px"
   y="0px"
   width="477.0957"
   height="180.20898"
   viewBox="0 0 477.0957 180.20898"
   xml:space="preserve"
   sodipodi:docname="logo.svg"
   inkscape:version="1.0.1 (c497b03c, 2020-09-10)"><metadata
   id="metadata872"><rdf:RDF><cc:Work
       rdf:about=""><dc:format>image/svg+xml</dc:format><dc:type
         rdf:resource="http://purl.org/dc/dcmitype/StillImage" /><dc:title></dc:title></cc:Work></rdf:RDF></metadata><defs
   id="defs870" /><sodipodi:namedview
   pagecolor="#ffffff"
   bordercolor="#666666"
   borderopacity="1"
   objecttolerance="10"
   gridtolerance="10"
   guidetolerance="10"
   inkscape:pageopacity="0"
   inkscape:pageshadow="2"
   inkscape:window-width="1393"
   inkscape:window-height="855"
   id="namedview868"
   showgrid="false"
   inkscape:zoom="1.4322537"
   inkscape:cx="253.0403"
   inkscape:cy="92.199248"
   inkscape:window-x="47"
   inkscape:window-y="23"
   inkscape:window-maximized="1"
   inkscape:current-layer="Capa_1"
   inkscape:document-rotation="0"
   lock-margins="true"
   fit-margin-top="5"
   fit-margin-left="5"
   fit-margin-right="5"
   fit-margin-bottom="5" />
<path
   id="path833"
   d="M 28.550781,5 C 28.550781,5 5,9.60991 5,32.87891 v 142.33007 c 0,0 2.6147826,-28.67382 23.550781,-28.67382 H 472.0957 L 426.86328,73.24609 472.0957,5 Z M 385.90039,36.05664 c 6.45615,0 12.13825,1.56728 17.04492,4.70312 4.94356,3.09896 8.74414,7.61895 11.40039,13.5586 2.65624,5.90276 3.98438,12.78257 3.98438,20.64062 v 5.0918 c 0,7.89494 -1.32814,14.79451 -3.98438,20.69727 -2.65625,5.86587 -6.41929,10.34831 -11.28906,13.44726 -4.86978,3.09895 -10.55189,4.64844 -17.04492,4.64844 -6.34547,0 -11.97224,-1.54949 -16.87891,-4.64844 -4.90667,-3.13585 -8.72505,-7.5827 -11.45508,-13.33789 -2.69313,-5.79209 -4.07464,-12.48809 -4.14843,-20.08789 v -5.81055 c 0,-7.74737 1.34593,-14.58964 4.03906,-20.52929 2.69313,-5.93965 6.49177,-10.47744 11.39844,-13.61328 4.94356,-3.17273 10.58812,-4.75977 16.93359,-4.75977 z M 21,37.16406 h 29.716797 c 8.817249,0 15.716813,2.24914 20.697265,6.75 5.017348,4.50085 7.525391,10.45966 7.525391,17.875 0,7.82116 -2.452705,13.85309 -7.359375,18.0957 -4.869777,4.20573 -11.862223,6.3086 -20.974609,6.3086 H 31.625 v 31.54297 H 21 Z m 71.441406,0 h 26.673824 c 9.0755,0 16.0482,2.06534 20.91797,6.19727 4.90667,4.13193 7.35938,10.14607 7.35938,18.04101 0,5.01735 -1.36568,9.38912 -4.0957,13.11524 -2.69314,3.72612 -6.45423,6.51086 -11.28711,8.35547 l 18.92382,34.19921 v 0.66407 H 139.53516 L 122.04883,85.14258 h -18.92578 v 32.59375 H 92.441406 Z m 69.781254,0 h 50.63476 v 8.74219 h -40.00976 v 25.89844 h 34.91992 v 8.68945 h -34.91992 v 28.55469 h 40.56445 v 8.6875 h -51.18945 z m 64.41406,0 h 13.72461 l 26.34179,65.74219 26.33985,-65.74219 h 13.7793 v 80.57227 h -10.625 V 86.35937 l 0.99609,-33.86718 -26.45117,65.24414 h -8.13477 l -26.39648,-65.07813 1.05078,33.70117 v 31.37696 h -10.625 z m 99.7207,0 h 10.625 v 80.57227 h -10.625 z m 59.54297,8.02344 c -6.71439,0 -12.00717,2.56339 -15.88086,7.69141 -3.8368,5.09113 -5.8112,12.17451 -5.92187,21.25 v 5.92187 c 0,9.25995 1.93685,16.54689 5.81054,21.85938 3.91058,5.27559 9.27845,7.9121 16.10352,7.9121 6.86196,0 12.17449,-2.49024 15.9375,-7.4707 3.76301,-5.01735 5.69987,-12.19165 5.81055,-21.52539 v -5.97656 c 0,-9.55509 -1.91907,-16.87957 -5.75586,-21.9707 -3.83679,-5.12802 -9.20467,-7.69141 -16.10352,-7.69141 z M 31.625,45.90625 v 31.59961 h 19.091797 c 5.681407,0 10.035382,-1.32814 13.060547,-3.98438 3.025165,-2.69313 4.537109,-6.56685 4.537109,-11.62109 0,-4.79599 -1.511944,-8.63413 -4.537109,-11.51172 -3.025165,-2.8776 -7.17558,-4.37175 -12.451172,-4.48242 z m 71.49805,0 v 30.54687 h 16.32422 c 5.27559,0 9.46355,-1.36372 12.5625,-4.09375 3.13584,-2.73003 4.70312,-6.38239 4.70312,-10.95703 0,-4.98045 -1.49415,-8.79883 -4.48242,-11.45508 -2.95138,-2.65623 -7.23027,-4.00412 -12.83789,-4.04101 z" />
</svg>
